# xmcd CD database file
#
# Track frame offsets:
# 150
# 29388
# 50638
# 75283
# 109048
# 124055
# 143196
# 161731
#
# Disc length: 2407 seconds
# Revision: 4
# Processed by: cddbd v1.5.2PL0 Copyright (c) Steve Scherf et al.
# Submitted via: MusicBin 0.4
#
DISCID=63096508
DTITLE=Zarb'zan - Zarb'zan II
DYEAR=2008
DGENRE=Rock
TTITLE0=Chalk Circle
TTITLE1=Love Turns Everything
TTITLE2=Sky Still Awaits
TTITLE3=Bairam
TTITLE4=West of the Sun
TTITLE5=Virus
TTITLE6=Sunlight
TTITLE7=Mariamoba
EXTD=
EXTT0=
EXTT1=
EXTT2=
EXTT3=
EXTT4=
EXTT5=
EXTT6=
EXTT7=
PLAYORDER=
